<svg width="32" height="32" viewBox="0 0 32 32" fill="none" xmlns="http://www.w3.org/2000/svg">
<g clip-path="url(#clip0_2086_119)">
<path d="M16 2.66663C8.63996 2.66663 2.66663 8.63996 2.66663 16C2.66663 23.36 8.63996 29.3333 16 29.3333C23.36 29.3333 29.3333 23.36 29.3333 16C29.3333 8.63996 23.36 2.66663 16 2.66663ZM9.42663 24.3733C9.99996 23.1733 13.4933 22 16 22C18.5066 22 22.0133 23.1733 22.5733 24.3733C20.76 25.8133 18.48 26.6666 16 26.6666C13.52 26.6666 11.24 25.8133 9.42663 24.3733ZM24.48 22.44C22.5733 20.12 17.9466 19.3333 16 19.3333C14.0533 19.3333 9.42663 20.12 7.51996 22.44C6.15996 20.6533 5.33329 18.4266 5.33329 16C5.33329 10.12 10.12 5.33329 16 5.33329C21.88 5.33329 26.6666 10.12 26.6666 16C26.6666 18.4266 25.84 20.6533 24.48 22.44ZM16 7.99996C13.4133 7.99996 11.3333 10.08 11.3333 12.6666C11.3333 15.2533 13.4133 17.3333 16 17.3333C18.5866 17.3333 20.6666 15.2533 20.6666 12.6666C20.6666 10.08 18.5866 7.99996 16 7.99996ZM16 14.6666C14.8933 14.6666 14 13.7733 14 12.6666C14 11.56 14.8933 10.6666 16 10.6666C17.1066 10.6666 18 11.56 18 12.6666C18 13.7733 17.1066 14.6666 16 14.6666Z" fill="#494961"/>
</g>
<defs>
<clipPath id="clip0_2086_119">
<rect width="32" height="32" fill="white"/>
</clipPath>
</defs>
</svg>
