<svg width="47" height="40" viewBox="0 0 47 40" fill="none" xmlns="http://www.w3.org/2000/svg">
<g opacity="0.6">
<path d="M0.833344 1.375C0.833344 0.822716 1.28106 0.375 1.83334 0.375H18.8333C19.3856 0.375 19.8333 0.822715 19.8333 1.375V37.1384C19.8333 38.0028 18.8107 38.46 18.1665 37.8837L1.16655 22.6731C0.954526 22.4834 0.833344 22.2124 0.833344 21.9279V1.375Z" fill="#D9D9D9"/>
<path d="M27.8333 1.375C27.8333 0.822716 28.2811 0.375 28.8333 0.375H45.8333C46.3856 0.375 46.8333 0.822715 46.8333 1.375V37.1384C46.8333 38.0028 45.8107 38.46 45.1665 37.8837L28.1665 22.6731C27.9545 22.4834 27.8333 22.2124 27.8333 21.9279V1.375Z" fill="#D9D9D9"/>
</g>
</svg>
