<svg width="45" height="45" viewBox="0 0 45 45" fill="none" xmlns="http://www.w3.org/2000/svg">
<rect opacity="0.1" x="1.22909" y="0.934761" width="42.5418" height="42.5418" rx="21.2709" fill="#091E42" stroke="#0A142F" stroke-width="1.11952"/>
<g clip-path="url(#clip0_2321_273)">
<path d="M23.0638 18.2388C20.5209 18.2388 18.4697 20.2579 18.4697 22.7611C18.4697 25.2643 20.5209 27.2833 23.0638 27.2833C25.6067 27.2833 27.6578 25.2643 27.6578 22.7611C27.6578 20.2579 25.6067 18.2388 23.0638 18.2388ZM23.0638 25.7011C21.4205 25.7011 20.0771 24.3826 20.0771 22.7611C20.0771 21.1395 21.4165 19.821 23.0638 19.821C24.7111 19.821 26.0505 21.1395 26.0505 22.7611C26.0505 24.3826 24.7071 25.7011 23.0638 25.7011ZM28.9173 18.0538C28.9173 18.6403 28.4375 19.1086 27.8457 19.1086C27.25 19.1086 26.7742 18.6363 26.7742 18.0538C26.7742 17.4713 27.254 16.999 27.8457 16.999C28.4375 16.999 28.9173 17.4713 28.9173 18.0538ZM31.96 19.1244C31.892 17.7114 31.5641 16.4598 30.5126 15.4286C29.465 14.3975 28.1936 14.0747 26.7582 14.0039C25.2788 13.9212 20.8447 13.9212 19.3654 14.0039C17.934 14.0708 16.6625 14.3935 15.611 15.4247C14.5594 16.4559 14.2356 17.7075 14.1636 19.1204C14.0796 20.5767 14.0796 24.9415 14.1636 26.3978C14.2316 27.8107 14.5594 29.0623 15.611 30.0935C16.6625 31.1247 17.93 31.4474 19.3654 31.5183C20.8447 31.6009 25.2788 31.6009 26.7582 31.5183C28.1936 31.4514 29.465 31.1286 30.5126 30.0935C31.5601 29.0623 31.888 27.8107 31.96 26.3978C32.0439 24.9415 32.0439 20.5806 31.96 19.1244ZM30.0488 27.9603C29.7369 28.7317 29.1332 29.326 28.3455 29.6369C27.166 30.0974 24.3672 29.9912 23.0638 29.9912C21.7603 29.9912 18.9575 30.0935 17.782 29.6369C16.9984 29.33 16.3946 28.7356 16.0788 27.9603C15.611 26.7992 15.7189 24.0442 15.7189 22.7611C15.7189 21.478 15.615 18.719 16.0788 17.5619C16.3906 16.7904 16.9944 16.1961 17.782 15.8852C18.9615 15.4247 21.7603 15.531 23.0638 15.531C24.3672 15.531 27.17 15.4286 28.3455 15.8852C29.1292 16.1922 29.7329 16.7865 30.0488 17.5619C30.5166 18.7229 30.4086 21.478 30.4086 22.7611C30.4086 24.0442 30.5166 26.8032 30.0488 27.9603Z" fill="#172B4D"/>
</g>
<defs>
<clipPath id="clip0_2321_273">
<rect width="17.9123" height="20.1514" fill="white" transform="translate(14.1036 12.6897)"/>
</clipPath>
</defs>
</svg>
