<svg width="44" height="45" viewBox="0 0 44 45" fill="none" xmlns="http://www.w3.org/2000/svg">
<rect opacity="0.1" x="0.894417" y="0.934761" width="42.5418" height="42.5418" rx="21.2709" fill="#091E42" stroke="#0A142F" stroke-width="1.11952"/>
<path fill-rule="evenodd" clip-rule="evenodd" d="M18.247 29.4824H14.8884V19.4067H18.247V29.4824Z" fill="#172B4D"/>
<path fill-rule="evenodd" clip-rule="evenodd" d="M16.5577 17.1679H16.5386C15.5364 17.1679 14.8884 16.4212 14.8884 15.488C14.8884 14.5351 15.5561 13.8093 16.5774 13.8093C17.5987 13.8093 18.2276 14.5351 18.247 15.488C18.247 16.4212 17.5987 17.1679 16.5577 17.1679Z" fill="#172B4D"/>
<path fill-rule="evenodd" clip-rule="evenodd" d="M30.5616 29.4822H27.2613V24.2155C27.2613 22.8926 26.7838 21.9899 25.589 21.9899C24.6772 21.9899 24.1341 22.5985 23.8955 23.1862C23.8083 23.3969 23.7869 23.6904 23.7869 23.9846V29.4824H20.4861C20.4861 29.4824 20.5296 20.5619 20.4861 19.6382H23.7869V21.0325C24.2249 20.3622 25.0094 19.4067 26.7617 19.4067C28.9336 19.4067 30.5618 20.814 30.5618 23.8378L30.5616 29.4822Z" fill="#172B4D"/>
</svg>
