<svg width="32" height="32" viewBox="0 0 32 32" fill="none" xmlns="http://www.w3.org/2000/svg">
<g clip-path="url(#clip0_2086_124)">
<path d="M20.7334 17.3333C21.7334 17.3333 22.6134 16.7866 23.0667 15.96L27.84 7.30663C28.3334 6.42663 27.6934 5.33329 26.68 5.33329H6.94671L5.69337 2.66663H1.33337V5.33329H4.00004L8.80004 15.4533L7.00004 18.7066C6.02671 20.4933 7.30671 22.6666 9.33337 22.6666H25.3334V20H9.33337L10.8 17.3333H20.7334ZM8.21337 7.99996H24.4134L20.7334 14.6666H11.3734L8.21337 7.99996ZM9.33337 24C7.86671 24 6.68004 25.2 6.68004 26.6666C6.68004 28.1333 7.86671 29.3333 9.33337 29.3333C10.8 29.3333 12 28.1333 12 26.6666C12 25.2 10.8 24 9.33337 24ZM22.6667 24C21.2 24 20.0134 25.2 20.0134 26.6666C20.0134 28.1333 21.2 29.3333 22.6667 29.3333C24.1334 29.3333 25.3334 28.1333 25.3334 26.6666C25.3334 25.2 24.1334 24 22.6667 24Z" fill="#494961"/>
</g>
<defs>
<clipPath id="clip0_2086_124">
<rect width="32" height="32" fill="white"/>
</clipPath>
</defs>
</svg>
