<svg width="44" height="45" viewBox="0 0 44 45" fill="none" xmlns="http://www.w3.org/2000/svg">
<rect opacity="0.1" x="0.563743" y="0.934761" width="42.5418" height="42.5418" rx="21.2709" fill="#091E42" stroke="#0A142F" stroke-width="1.11952"/>
<path fill-rule="evenodd" clip-rule="evenodd" d="M21.6245 19.3242L21.656 19.8569L21.1302 19.7916C19.2163 19.5416 17.5443 18.6937 16.1246 17.2697L15.4306 16.5631L15.2518 17.0849C14.8732 18.248 15.1151 19.4764 15.9038 20.3025C16.3244 20.7591 16.2298 20.8243 15.5042 20.5526C15.2518 20.4656 15.031 20.4004 15.01 20.433C14.9363 20.5091 15.1887 21.4983 15.3885 21.8896C15.6619 22.4331 16.2193 22.9658 16.8292 23.281L17.3445 23.531L16.7346 23.5419C16.1457 23.5419 16.1246 23.5528 16.1877 23.7811C16.3981 24.4876 17.2288 25.2377 18.1542 25.5638L18.8062 25.7921L18.2383 26.1399C17.3971 26.64 16.4086 26.9226 15.4201 26.9443C14.9469 26.9552 14.5578 26.9987 14.5578 27.0313C14.5578 27.14 15.8407 27.7487 16.5873 27.9879C18.8272 28.6945 21.4878 28.3901 23.4858 27.1835C24.9054 26.3247 26.3251 24.6181 26.9876 22.9658C27.3451 22.0853 27.7027 20.4765 27.7027 19.7047C27.7027 19.2046 27.7342 19.1394 28.3231 18.5415C28.6701 18.1937 28.9961 17.8132 29.0592 17.7045C29.1644 17.498 29.1539 17.498 28.6175 17.6828C27.7237 18.0089 27.5975 17.9654 28.0392 17.4763C28.3652 17.1284 28.7543 16.4979 28.7543 16.3131C28.7543 16.2805 28.5965 16.3349 28.4177 16.4327C28.2285 16.5414 27.8078 16.7045 27.4923 16.8023L26.9245 16.9871L26.4092 16.6284C26.1253 16.4327 25.7257 16.2153 25.5153 16.1501C24.979 15.9979 24.1588 16.0196 23.6751 16.1935C22.3606 16.6827 21.5298 17.9437 21.6245 19.3242Z" fill="#172B4D"/>
</svg>
