<svg width="44" height="45" viewBox="0 0 44 45" fill="none" xmlns="http://www.w3.org/2000/svg">
<rect opacity="0.1" x="0.898414" y="0.934761" width="42.5418" height="42.5418" rx="21.2709" fill="#091E42" stroke="#0A142F" stroke-width="1.11952"/>
<path d="M26.6474 29.1098H17.3181C14.5193 29.1098 12.6534 27.3372 12.6534 24.6784V19.3606C12.6534 16.7018 14.5193 14.9292 17.3181 14.9292H26.6474C29.4462 14.9292 31.3121 16.7018 31.3121 19.3606V24.6784C31.3121 27.3372 29.4462 29.1098 26.6474 29.1098Z" stroke="#091E42" stroke-width="1.11952" stroke-miterlimit="10" stroke-linecap="round" stroke-linejoin="round"/>
<path d="M22.1693 19.99L24.5017 21.3195C25.3413 21.8512 25.3413 22.6489 24.5017 23.1807L22.1693 24.5101C21.2364 25.0419 20.4901 24.5987 20.4901 23.6238V20.965C20.4901 19.8128 21.2364 19.4583 22.1693 19.99Z" stroke="#091E42" stroke-width="1.11952" stroke-miterlimit="10" stroke-linecap="round" stroke-linejoin="round"/>
</svg>
